<?xml version="1.0" encoding="iso-8859-1"?>
<!-- Uploaded to: SVG Repo, www.svgrepo.com, Generator: SVG Repo Mixer Tools -->
<svg height="800px" width="800px" version="1.1" id="Layer_1" xmlns="http://www.w3.org/2000/svg" xmlns:xlink="http://www.w3.org/1999/xlink" 
	 viewBox="0 0 512 512" xml:space="preserve">
<path style="fill:#ECEDEF;" d="M0,136.284v367.699C0,508.411,3.589,512,8.017,512h319.599c2.126,0,4.165-0.844,5.668-2.348
	l176.367-176.367c1.504-1.503,2.348-3.542,2.348-5.668V136.284H0z"/>
<path style="fill:#D9DCDF;" d="M25.119,503.983V136.284H0v367.699C0,508.411,3.589,512,8.017,512h25.119
	C28.708,512,25.119,508.411,25.119,503.983z"/>
<path style="fill:#FF8C78;" d="M469.779,51.307H42.221C18.903,51.307,0,70.21,0,93.528v67.875h512V93.528
	C512,70.21,493.097,51.307,469.779,51.307z"/>
<path style="fill:#DF7A6E;" d="M67.34,51.307H42.221C18.903,51.307,0,70.21,0,93.528v67.875h25.119V93.528
	C25.119,70.21,44.022,51.307,67.34,51.307z"/>
<g>
	<path style="fill:#8E959F;" d="M136.284,0c-13.851,0-25.119,11.268-25.119,25.119v68.409c0,13.851,11.268,25.119,25.119,25.119
		c13.851,0,25.119-11.268,25.119-25.119V25.119C161.403,11.268,150.135,0,136.284,0z"/>
	<path style="fill:#8E959F;" d="M256,0c-13.851,0-25.119,11.268-25.119,25.119v68.409c0,13.851,11.268,25.119,25.119,25.119
		c13.851,0,25.119-11.268,25.119-25.119V25.119C281.119,11.268,269.851,0,256,0z"/>
	<path style="fill:#8E959F;" d="M367.165,0c-13.851,0-25.119,11.268-25.119,25.119v68.409c0,13.851,11.268,25.119,25.119,25.119
		c13.851,0,25.119-11.268,25.119-25.119V25.119C392.284,11.268,381.016,0,367.165,0z"/>
</g>
<g>
	<path style="fill:#68727E;" d="M120.251,93.528V25.119c0-12.299,8.888-22.555,20.576-24.7C139.352,0.149,137.836,0,136.284,0
		c-13.851,0-25.119,11.268-25.119,25.119v68.409c0,13.851,11.268,25.119,25.119,25.119c1.552,0,3.068-0.149,4.543-0.419
		C129.138,116.083,120.251,105.827,120.251,93.528z"/>
	<path style="fill:#68727E;" d="M239.967,93.528V25.119c0-12.299,8.888-22.555,20.576-24.7C259.068,0.149,257.552,0,256,0
		c-13.851,0-25.119,11.268-25.119,25.119v68.409c0,13.851,11.268,25.119,25.119,25.119c1.552,0,3.068-0.149,4.543-0.419
		C248.854,116.083,239.967,105.827,239.967,93.528z"/>
	<path style="fill:#68727E;" d="M351.132,93.528V25.119c0-12.299,8.888-22.555,20.576-24.7C370.233,0.149,368.717,0,367.165,0
		c-13.851,0-25.119,11.268-25.119,25.119v68.409c0,13.851,11.268,25.119,25.119,25.119c1.552,0,3.068-0.149,4.543-0.419
		C360.019,116.083,351.132,105.827,351.132,93.528z"/>
</g>
<g>
	<path style="fill:#509FE8;" d="M179.039,181.712c-22.091,0-42.946,8.514-58.725,23.974c-9.47,9.281-9.625,24.539-0.345,34.011
		c9.282,9.47,24.539,9.624,34.01,0.345c6.732-6.597,15.633-10.23,25.059-10.23c19.745,0,35.808,16.063,35.808,35.808
		c0,19.745-16.063,35.808-35.808,35.808c-13.262,0-24.05,10.788-24.05,24.05s10.788,24.05,24.05,24.05
		c19.745,0,35.808,16.063,35.808,35.808c0,19.745-16.063,35.808-35.808,35.808c-9.701,0-18.784-3.816-25.576-10.747
		c-9.282-9.469-24.539-9.623-34.01-0.342c-9.47,9.282-9.623,24.54-0.342,34.01c15.914,16.237,37.196,25.179,59.93,25.179
		c46.267,0,83.908-37.641,83.908-83.908c0-22.786-9.059-44.125-25.141-59.858c16.083-15.733,25.141-37.072,25.141-59.858
		C262.947,219.353,225.306,181.712,179.039,181.712z"/>
	<path style="fill:#509FE8;" d="M386.28,184.158c-8.19-4.004-18.133-2.976-25.331,2.621l-76.96,59.858
		c-7.837,6.095-11.186,16.724-8.187,26.21c2.97,9.392,11.594,16.133,21.411,16.775c5.845,0.383,11.684-1.423,16.305-5.017
		l38.146-29.668v180.638c0,4.427,3.589,8.017,8.017,8.017h32.067c4.427,0,8.017-3.589,8.017-8.017V205.762
		C399.764,196.644,394.472,188.164,386.28,184.158z"/>
</g>
<path style="fill:#D9DCDF;" d="M509.931,332.96H341.333c-4.427,0-8.017,3.589-8.017,8.017V509.62l176.628-176.627
	C509.935,332.969,509.94,332.983,509.931,332.96z"/>
</svg>